<?xml version="1.0" encoding="UTF-8"?>
<!-- Generated by Pixelmator Pro 3.0 -->
<svg width="340" height="224" viewBox="0 0 340 224" xmlns="http://www.w3.org/2000/svg" xmlns:xlink="http://www.w3.org/1999/xlink">
    <path id="Follow" fill="none" stroke="#000000" stroke-width="3" stroke-opacity="0.870313" stroke-linecap="round" stroke-linejoin="round" d="M 282.515625 18.453125 L 286.359375 6.796875 L 297.859375 6.796875 L 301.71875 18.453125 L 305.5625 6.796875 L 323.1875 6.796875 L 308.109375 52.5 L 295.328125 52.5 L 292.109375 42.8125 L 288.90625 52.5 L 276.125 52.5 L 261.046875 6.796875 L 278.65625 6.796875 Z M 282.734375 38.046875 L 291.015625 11.921875 L 293.203125 11.921875 L 301.484375 38.046875 L 310.109375 11.921875 L 314.984375 11.921875 L 303.296875 47.375 L 299.53125 47.375 L 292.109375 24 L 284.6875 47.375 L 280.921875 47.375 L 269.234375 11.921875 L 274.125 11.921875 Z M 232.4375 6.125 L 236.984375 7.421875 L 241.15625 9.5625 L 245.140625 12.78125 L 248.359375 16.765625 L 250.5 20.9375 L 251.796875 25.484375 L 252.140625 29.6875 L 251.796875 33.875 L 250.5 38.421875 L 248.359375 42.59375 L 245.140625 46.578125 L 241.15625 49.796875 L 236.984375 51.9375 L 232.4375 53.234375 L 228.234375 53.578125 L 224.046875 53.234375 L 219.5 51.9375 L 215.328125 49.796875 L 211.34375 46.578125 L 208.125 42.59375 L 205.984375 38.421875 L 204.6875 33.875 L 204.34375 29.6875 L 204.6875 25.484375 L 205.984375 20.9375 L 208.125 16.765625 L 211.34375 12.78125 L 215.328125 9.5625 L 219.5 7.421875 L 224.046875 6.125 L 228.234375 5.78125 Z M 231.390625 12.0625 L 234.78125 13.015625 L 237.90625 14.609375 L 240.890625 17.03125 L 243.3125 20.015625 L 244.90625 23.140625 L 245.859375 26.53125 L 246.125 29.6875 L 245.859375 32.828125 L 244.90625 36.21875 L 243.3125 39.34375 L 240.890625 42.328125 L 237.90625 44.75 L 234.78125 46.34375 L 231.390625 47.3125 L 228.234375 47.5625 L 225.078125 47.3125 L 221.703125 46.34375 L 218.578125 44.75 L 215.59375 42.328125 L 213.171875 39.34375 L 211.578125 36.21875 L 210.609375 32.828125 L 210.359375 29.6875 L 210.609375 26.53125 L 211.578125 23.140625 L 213.171875 20.015625 L 215.59375 17.03125 L 218.578125 14.609375 L 221.703125 13.015625 L 225.078125 12.0625 L 228.234375 11.796875 Z M 232.328125 20.015625 L 235.65625 22.265625 L 237.90625 25.59375 L 238.734375 29.6875 L 237.90625 33.765625 L 235.65625 37.09375 L 232.328125 39.34375 L 228.234375 40.171875 L 224.15625 39.34375 L 220.828125 37.09375 L 218.578125 33.765625 L 217.75 29.6875 L 218.578125 25.59375 L 220.828125 22.265625 L 224.15625 20.015625 L 228.234375 19.1875 Z M 231.109375 13.6875 L 234.1875 14.5625 L 236.6875 15.828125 L 239.703125 18.21875 L 242.09375 21.234375 L 243.359375 23.734375 L 244.21875 26.8125 L 244.453125 29.6875 L 244.21875 32.5625 L 243.359375 35.625 L 242.09375 38.125 L 239.703125 41.140625 L 236.6875 43.53125 L 234.1875 44.796875 L 231.109375 45.671875 L 228.234375 45.90625 L 225.359375 45.671875 L 222.296875 44.796875 L 219.796875 43.53125 L 216.78125 41.140625 L 214.390625 38.125 L 213.125 35.625 L 212.25 32.5625 L 212.015625 29.6875 L 212.25 26.8125 L 213.125 23.734375 L 214.390625 21.234375 L 216.78125 18.21875 L 219.796875 15.828125 L 222.296875 14.5625 L 225.359375 13.6875 L 228.234375 13.453125 Z M 181.484375 38.296875 L 193.265625 38.296875 L 193.265625 52.5 L 164.28125 52.5 L 164.28125 6.796875 L 181.484375 6.796875 Z M 175.34375 42.84375 L 189.671875 42.84375 L 189.671875 47.375 L 170.671875 47.375 L 170.671875 11.921875 L 175.34375 11.921875 Z M 138.546875 38.296875 L 150.3125 38.296875 L 150.3125 52.5 L 121.328125 52.5 L 121.328125 6.796875 L 138.546875 6.796875 Z M 132.390625 42.84375 L 146.734375 42.84375 L 146.734375 47.375 L 127.734375 47.375 L 127.734375 11.921875 L 132.390625 11.921875 Z M 86.390625 6.125 L 90.9375 7.421875 L 95.109375 9.5625 L 99.09375 12.78125 L 102.3125 16.765625 L 104.453125 20.9375 L 105.734375 25.484375 L 106.09375 29.6875 L 105.734375 33.875 L 104.453125 38.421875 L 102.3125 42.59375 L 99.09375 46.578125 L 95.109375 49.796875 L 90.9375 51.9375 L 86.390625 53.234375 L 82.1875 53.578125 L 77.984375 53.234375 L 73.4375 51.9375 L 69.28125 49.796875 L 65.296875 46.578125 L 62.0625 42.59375 L 59.9375 38.421875 L 58.640625 33.875 L 58.296875 29.6875 L 58.640625 25.484375 L 59.9375 20.9375 L 62.0625 16.765625 L 65.296875 12.78125 L 69.28125 9.5625 L 73.4375 7.421875 L 77.984375 6.125 L 82.1875 5.78125 Z M 85.34375 12.0625 L 88.734375 13.015625 L 91.859375 14.609375 L 94.84375 17.03125 L 97.265625 20.015625 L 98.859375 23.140625 L 99.8125 26.53125 L 100.078125 29.6875 L 99.8125 32.828125 L 98.859375 36.21875 L 97.265625 39.34375 L 94.84375 42.328125 L 91.859375 44.75 L 88.734375 46.34375 L 85.34375 47.3125 L 82.1875 47.5625 L 79.03125 47.3125 L 75.65625 46.34375 L 72.53125 44.75 L 69.546875 42.328125 L 67.125 39.34375 L 65.53125 36.21875 L 64.5625 32.828125 L 64.3125 29.6875 L 64.5625 26.53125 L 65.53125 23.140625 L 67.125 20.015625 L 69.546875 17.03125 L 72.53125 14.609375 L 75.65625 13.015625 L 79.03125 12.0625 L 82.1875 11.796875 Z M 86.28125 20.015625 L 89.609375 22.265625 L 91.859375 25.59375 L 92.6875 29.6875 L 91.859375 33.765625 L 89.609375 37.09375 L 86.28125 39.34375 L 82.1875 40.171875 L 78.109375 39.34375 L 74.78125 37.09375 L 72.53125 33.765625 L 71.703125 29.6875 L 72.53125 25.59375 L 74.78125 22.265625 L 78.109375 20.015625 L 82.1875 19.1875 Z M 85.0625 13.6875 L 88.140625 14.5625 L 90.640625 15.828125 L 93.65625 18.21875 L 96.046875 21.234375 L 97.3125 23.734375 L 98.171875 26.8125 L 98.40625 29.6875 L 98.171875 32.5625 L 97.3125 35.625 L 96.046875 38.125 L 93.65625 41.140625 L 90.640625 43.53125 L 88.140625 44.796875 L 85.0625 45.671875 L 82.1875 45.90625 L 79.3125 45.671875 L 76.25 44.796875 L 73.75 43.53125 L 70.734375 41.140625 L 68.34375 38.125 L 67.078125 35.625 L 66.203125 32.5625 L 65.96875 29.6875 L 66.203125 26.8125 L 67.078125 23.734375 L 68.34375 21.234375 L 70.734375 18.21875 L 73.75 15.828125 L 76.25 14.5625 L 79.3125 13.6875 L 82.1875 13.453125 Z M 44.328125 21 L 32.8125 21 L 32.8125 22.734375 L 44.140625 22.734375 L 44.140625 36.359375 L 32.8125 36.359375 L 32.8125 52.5 L 16.1875 52.5 L 16.1875 6.796875 L 44.328125 6.796875 Z M 40.046875 16.453125 L 27.25 16.453125 L 27.25 27.28125 L 39.40625 27.28125 L 39.40625 31.8125 L 27.25 31.8125 L 27.25 47.375 L 22.578125 47.375 L 22.578125 11.921875 L 40.046875 11.921875 Z"/>
    <path id="BUSH" fill="none" stroke="#000000" stroke-width="3" stroke-linecap="round" stroke-linejoin="round" d="M 259.8125 154.53125 L 290.765625 154.53125 L 290.765625 123.578125 L 311.40625 123.578125 L 311.40625 206.5 L 290.765625 206.5 L 290.765625 172.40625 L 259.8125 172.40625 L 259.8125 206.5 L 239.296875 206.5 L 239.296875 123.578125 L 259.8125 123.578125 Z M 212.078125 122.84375 L 217.671875 124.09375 L 225.796875 126.8125 L 222.625 145.890625 L 215.703125 142.578125 L 209.65625 140.671875 L 203.921875 139.828125 L 199.21875 139.984375 L 195.46875 141.09375 L 193.09375 142.96875 L 192.015625 145.40625 L 192.078125 147.9375 L 193 149.765625 L 195.375 151.609375 L 199.03125 153.484375 L 215.46875 160.4375 L 219.59375 162.984375 L 222.734375 165.90625 L 226.203125 170.84375 L 227.84375 175.53125 L 228.484375 180.96875 L 228.09375 187.03125 L 227.109375 191.0625 L 224.859375 195.796875 L 222.453125 198.953125 L 218.40625 202.46875 L 214.765625 204.5625 L 209.296875 206.578125 L 203.0625 207.75 L 197 208.046875 L 190.875 207.75 L 184.1875 206.65625 L 178.015625 204.828125 L 171.28125 201.71875 L 173.015625 182.34375 L 181.203125 186.65625 L 186.765625 188.703125 L 192.28125 189.953125 L 197.296875 190.265625 L 202 189.578125 L 205.5 187.890625 L 207.515625 185.53125 L 208.0625 183.03125 L 207.484375 180.65625 L 205.359375 178.65625 L 185.6875 169.875 L 180.578125 166.875 L 177.625 164.296875 L 174.28125 159.953125 L 172.46875 155.78125 L 171.5 149.171875 L 171.875 143.171875 L 173.296875 137.953125 L 175.78125 133.34375 L 179.8125 128.953125 L 184.96875 125.578125 L 190.40625 123.5 L 196.546875 122.328125 L 203.875 122.03125 Z M 111.390625 172.734375 L 112.03125 177.859375 L 113.8125 182.5625 L 115.3125 184.796875 L 117.0625 186.5625 L 120.765625 188.65625 L 125.71875 189.4375 L 130.671875 188.65625 L 134.40625 186.546875 L 136.21875 184.734375 L 137.671875 182.609375 L 139.5 177.859375 L 140.15625 172.671875 L 140.171875 123.578125 L 160.578125 123.578125 L 160.5625 174.265625 L 159.75 181.515625 L 157.734375 188.15625 L 155.6875 192.25 L 152.140625 197.140625 L 149 200.21875 L 144.953125 203.109375 L 140.390625 205.375 L 136.546875 206.6875 L 131.90625 207.625 L 125.71875 208.046875 L 119.515625 207.625 L 114.875 206.6875 L 111.03125 205.375 L 106.46875 203.109375 L 102.421875 200.21875 L 99.28125 197.140625 L 95.734375 192.25 L 93.6875 188.15625 L 91.671875 181.515625 L 90.859375 174.265625 L 90.859375 123.578125 L 111.375 123.578125 Z M 57.265625 124.03125 L 64.578125 126.0625 L 67.828125 127.78125 L 71.53125 130.65625 L 74.390625 134.171875 L 76.6875 139.265625 L 77.46875 143.96875 L 77.296875 149.359375 L 75.859375 154.453125 L 73.921875 157.90625 L 71.28125 160.921875 L 69.328125 162.390625 L 72.34375 163.96875 L 76.796875 168.125 L 79.5625 173.296875 L 80.328125 176.359375 L 80.65625 180.390625 L 80.296875 184.96875 L 79.4375 188.484375 L 76.828125 193.96875 L 74.140625 197.4375 L 71.515625 199.875 L 65.359375 203.609375 L 59.96875 205.484375 L 54.15625 206.390625 L 22.578125 206.5 L 22.578125 123.578125 L 51.625 123.578125 Z M 50.453125 136.84375 L 55.171875 137.90625 L 58.015625 139.6875 L 60.265625 143.140625 L 60.875 147.171875 L 60.15625 151.5625 L 58.34375 154.703125 L 55.5 157.09375 L 51.84375 158.53125 L 46.828125 159.09375 L 39.25 159.09375 L 39.25 136.75 Z M 52.390625 169.625 L 57.484375 170.8125 L 60.5625 172.78125 L 63.0625 176.46875 L 63.75 180.625 L 62.953125 185.1875 L 60.984375 188.484375 L 57.875 191.015625 L 53.921875 192.578125 L 48.515625 193.171875 L 39.25 193.171875 L 39.25 169.515625 Z"/>
    <path id="The" fill="none" stroke="#000000" stroke-width="3" stroke-linecap="round" stroke-linejoin="round" d="M 213.484375 76.953125 L 217.78125 78.859375 L 221 82.09375 L 222.953125 86.421875 L 223.453125 89.578125 L 223.515625 96.640625 L 204.859375 96.640625 L 204.984375 97.359375 L 205.703125 98.796875 L 206.78125 99.890625 L 208.15625 100.5625 L 210.0625 100.859375 L 213.546875 100.671875 L 216.828125 99.875 L 221.84375 97.859375 L 221.84375 107.3125 L 216.765625 109.1875 L 212.546875 109.78125 L 208.3125 109.78125 L 205.046875 109.296875 L 202.03125 108.296875 L 199.359375 106.75 L 197.109375 104.65625 L 195.328125 102.046875 L 194.125 98.90625 L 193.546875 95.3125 L 193.640625 90.140625 L 194.359375 86.625 L 196.140625 82.765625 L 198.078125 80.375 L 201.296875 78.09375 L 205.109375 76.796875 L 208.875 76.421875 Z M 211.5625 82.5 L 213.9375 84.046875 L 215.421875 86.453125 L 216.296875 91.3125 L 201.46875 91.3125 L 202.28125 86.828125 L 203.6875 84.296875 L 205.921875 82.6875 L 208.875 82.109375 Z M 170.65625 78.71875 L 172.859375 77.390625 L 175.578125 76.625 L 178.84375 76.4375 L 181.671875 76.8125 L 184.546875 77.859375 L 186.953125 79.640625 L 188.765625 82.203125 L 189.96875 87.140625 L 190.015625 109.3125 L 179.03125 109.3125 L 178.796875 88.578125 L 177.734375 86.4375 L 177.140625 86.078125 L 175.71875 85.84375 L 174.3125 86 L 173.0625 86.5625 L 172.1875 87.484375 L 171.46875 89.140625 L 170.953125 93.25 L 170.953125 109.3125 L 159.9375 109.3125 L 159.9375 65.5 L 170.984375 65.5 Z M 157.671875 77.734375 L 147.25 77.734375 L 147.25 109.3125 L 136.125 109.3125 L 136.125 77.734375 L 125.703125 77.734375 L 125.703125 67.953125 L 157.671875 67.953125 Z"/>
</svg>
